Coordinates
version=1
nRows=11
nColumns=63
inDegrees=yes

Units are S.I. units (second, meters, Newtons, ...)
If the header above contains a line with 'inDegrees', this indicates whether rotational values are in degrees (yes) or radians (no).

endheader
time	pelvis_tilt	pelvis_list	pelvis_rotation	pelvis_tx	pelvis_ty	pelvis_tz	hip_flexion_r	hip_adduction_r	hip_rotation_r	knee_angle_r	knee_angle_r_beta	ankle_angle_r	subtalar_angle_r	mtp_angle_r	hip_flexion_l	hip_adduction_l	hip_rotation_l	knee_angle_l	knee_angle_l_beta	ankle_angle_l	subtalar_angle_l	mtp_angle_l	L5_S1_Flex_Ext	L5_S1_Lat_Bending	L5_S1_axial_rotation	L4_L5_Flex_Ext	L4_L5_Lat_Bending	L4_L5_axial_rotation	L3_L4_Flex_Ext	L3_L4_Lat_Bending	L3_L4_axial_rotation	L2_L3_Flex_Ext	L2_L3_Lat_Bending	L2_L3_axial_rotation	L1_L2_Flex_Ext	L1_L2_Lat_Bending	L1_L2_axial_rotation	L1_T12_Flex_Ext	L1_T12_Lat_Bending	L1_T12_axial_rotation	Abs_r3	Abs_r2	Abs_r1	Abs_t1	Abs_t2	neck_flexion	neck_bending	neck_rotation	arm_flex_r	arm_add_r	arm_rot_r	elbow_flex_r	pro_sup_r	wrist_flex_r	wrist_dev_r	arm_flex_l	arm_add_l	arm_rot_l	elbow_flex_l	pro_sup_l	wrist_flex_l	wrist_dev_l
8.773585	5.554918	-8.243502	94.976354	0.199240	0.817194	0.714291	7.535240	4.308286	-13.318946	11.050109	0.192861	19.145947	-5.303563	0.000000	5.949834	-6.324317	5.690734	5.234020	0.091351	27.452717	8.211994	0.000000	-0.101106	1.082639	-1.285446	-0.187763	1.439910	-1.365787	-0.166106	2.632329	-1.365787	-0.115553	2.632329	-1.124766	-0.093887	2.207718	-1.044425	-0.057772	1.677008	-0.964085	-0.722187	12.247031	-7.149267	0.000000	0.000000	25.719500	1.384247	34.160679	4.308777	-14.536653	25.484282	32.382482	85.829069	-3.702779	11.539296	12.241965	-4.548185	-230.067152	2.287808	18.758761	-6.258640	-8.448499
8.792453	5.493457	-8.087089	94.924528	0.199055	0.817431	0.713941	7.418258	4.232314	-13.382629	11.248624	0.196326	19.251813	-5.285420	0.000000	5.667940	-6.261050	6.133335	5.130337	0.089541	27.200146	7.692055	0.000000	-0.111162	1.092455	-1.313709	-0.206440	1.452965	-1.395816	-0.182629	2.656195	-1.395816	-0.127047	2.656195	-1.149496	-0.103225	2.227734	-1.067389	-0.063518	1.692213	-0.985282	-0.794022	12.358071	-7.306458	0.000000	0.000000	25.655128	0.880484	33.237702	4.372061	-14.729904	25.947811	32.386380	85.866691	-3.843065	11.653623	12.182204	-4.480775	-229.518974	2.236996	18.840305	-6.263337	-7.980051
8.811321	5.424605	-7.920441	94.900495	0.198899	0.817673	0.713527	7.268925	4.149491	-13.522146	11.420489	0.199325	19.344968	-5.212235	0.000000	5.385071	-6.192128	6.578635	5.036748	0.087908	26.976402	7.178828	0.000000	-0.119599	1.102196	-1.344982	-0.222107	1.465921	-1.429043	-0.196489	2.679880	-1.429043	-0.136690	2.679880	-1.176859	-0.111059	2.247598	-1.092798	-0.068339	1.707302	-1.008737	-0.854283	12.468263	-7.480386	0.000000	0.000000	25.622942	0.367747	32.429825	4.438051	-14.931203	26.507649	32.327775	85.777360	-4.012013	11.680229	12.148491	-4.414105	-228.867532	2.157287	18.801928	-6.018857	-7.430230
8.830189	5.359999	-7.754736	94.905558	0.198747	0.817905	0.713048	7.094377	4.068012	-13.777866	11.558565	0.201735	19.417686	-5.031074	0.000000	5.112481	-6.126659	7.056684	4.948248	0.086363	26.772992	6.645142	0.000000	-0.126517	1.113674	-1.381810	-0.234955	1.481186	-1.468173	-0.207855	2.707786	-1.468173	-0.144596	2.707786	-1.209084	-0.117484	2.271003	-1.122721	-0.072292	1.725080	-1.036357	-0.903699	12.598099	-7.685212	0.000000	0.000000	25.621430	-0.095768	31.744509	4.500119	-15.143934	27.127645	32.222627	85.563541	-4.208328	11.618156	12.138732	-4.345869	-228.156969	2.049715	18.580704	-5.505729	-6.831890
8.849057	5.326159	-7.599119	94.925783	0.198467	0.818211	0.712500	6.900258	4.010029	-14.100973	11.647525	0.203288	19.401075	-4.766966	0.000000	4.862145	-6.084678	7.502396	4.872475	0.085041	26.580977	6.139406	0.000000	-0.131289	1.132685	-1.420660	-0.243817	1.506472	-1.509451	-0.215695	2.754012	-1.509451	-0.150051	2.754012	-1.243078	-0.121915	2.309772	-1.154286	-0.075019	1.754530	-1.065495	-0.937787	12.813165	-7.901285	0.000000	0.000000	25.604471	-0.514331	31.216899	4.562756	-15.419610	27.829460	32.082775	85.228948	-4.408430	11.453591	12.593253	-3.926629	-222.051142	0.516373	13.520895	-4.083278	-7.088879
8.867925	5.287070	-7.461943	94.998712	0.198212	0.818440	0.711881	6.690270	3.944117	-14.576565	11.683312	0.203912	19.379261	-4.365254	0.000000	4.648118	-6.038446	7.895249	4.810483	0.083959	26.443081	5.772059	0.000000	-0.134112	1.150421	-1.473102	-0.249060	1.530060	-1.565171	-0.220333	2.797135	-1.565171	-0.153277	2.797135	-1.288965	-0.124537	2.345939	-1.196896	-0.076632	1.782003	-1.104827	-0.957952	13.013797	-8.192954	0.000000	0.000000	25.570816	-0.730906	30.795027	4.592711	-15.648050	28.335988	31.952809	85.053597	-4.501884	11.342291	12.804121	-3.700810	-218.954330	-0.261220	10.711424	-2.866952	-6.917748
8.886792	5.249927	-7.335724	95.114866	0.198005	0.818606	0.711240	6.474933	3.881248	-15.140005	11.691816	0.204061	19.360226	-3.895641	0.000000	4.473047	-5.997962	8.209040	4.783002	0.083479	26.348304	5.523851	0.000000	-0.136909	1.167168	-1.533911	-0.254254	1.552333	-1.629780	-0.224928	2.837851	-1.629780	-0.156474	2.837851	-1.342172	-0.127134	2.380088	-1.246302	-0.078230	1.807943	-1.150433	-0.977929	13.203233	-8.531151	0.000000	0.000000	25.504722	-0.785400	30.455658	4.604070	-15.863081	28.780298	31.844348	84.964883	-4.537929	11.213664	12.787853	-3.655157	-218.629176	-0.335709	9.926769	-1.884234	-6.411468
8.905660	5.202076	-7.219928	95.233665	0.197919	0.818721	0.710534	6.235308	3.823571	-15.708019	11.621900	0.202840	19.321412	-3.406273	0.000000	4.304935	-5.956701	8.432849	4.748282	0.082873	26.285193	5.411774	0.000000	-0.137579	1.179642	-1.592359	-0.255497	1.568924	-1.691882	-0.226028	2.868181	-1.691882	-0.157239	2.868181	-1.393314	-0.127756	2.405526	-1.293792	-0.078612	1.827265	-1.194269	-0.982710	13.344346	-8.856223	0.000000	0.000000	25.337928	-0.600003	30.155199	4.571172	-16.036861	29.083368	31.752283	84.901353	-4.479354	11.152891	12.558057	-3.779142	-220.915028	0.201997	11.121663	-1.186847	-5.667886
8.924528	5.158909	-7.103565	95.393563	0.197896	0.818788	0.709815	5.978530	3.779424	-16.330235	11.496809	0.200657	19.326407	-2.848979	0.000000	4.149521	-5.927260	8.622088	4.725239	0.082471	26.242146	5.367189	0.000000	-0.137510	1.190224	-1.660644	-0.255370	1.582999	-1.764434	-0.225915	2.893912	-1.764434	-0.157160	2.893912	-1.453064	-0.127692	2.427106	-1.349273	-0.078573	1.843658	-1.245483	-0.982221	13.464057	-9.236005	0.000000	0.000000	25.022184	-0.164283	29.999052	4.539073	-16.190267	29.347176	31.667756	84.891227	-4.308099	11.179722	12.097790	-4.051353	-225.380426	1.307654	13.822855	-0.744378	-4.690902
8.943396	5.115485	-6.981570	95.530078	0.198002	0.818830	0.709100	5.708395	3.758287	-16.796715	11.315167	0.197487	19.342191	-2.427244	0.000000	3.981350	-5.907937	8.710656	4.701652	0.082059	26.213064	5.409553	0.000000	-0.136918	1.198051	-1.718232	-0.254271	1.593407	-1.825622	-0.224943	2.912940	-1.825622	-0.156484	2.912940	-1.503453	-0.127142	2.443065	-1.396064	-0.078235	1.855780	-1.288674	-0.977992	13.552589	-9.556293	0.000000	0.000000	24.552995	0.469348	29.862238	4.471290	-16.317553	29.484587	31.596373	84.856415	-4.042279	11.311472	11.496621	-4.457698	-231.636062	2.853039	17.892109	-0.605384	-3.636541
8.962264	5.082217	-6.846450	95.642454	0.198235	0.818851	0.708401	5.423761	3.774974	-17.073533	11.084914	0.193468	19.364026	-2.195040	0.000000	3.794609	-5.912587	8.655820	4.685428	0.081776	26.210668	5.594926	0.000000	-0.136704	1.204545	-1.767312	-0.253874	1.602045	-1.877769	-0.224592	2.928731	-1.877769	-0.156239	2.928731	-1.546398	-0.126944	2.456308	-1.435941	-0.078113	1.865840	-1.325484	-0.976466	13.626054	-9.829261	0.000000	0.000000	23.910891	1.305764	29.762213	4.368027	-16.415892	29.476362	31.542093	84.805286	-3.703531	11.555805	10.773887	-4.981177	-239.579907	4.776474	23.309309	-0.767896	-2.600830
